<mxfile host="app.diagrams.net" agent="Mozilla/5.0 (Macintosh; Intel Mac OS X 10_15_7) AppleWebKit/537.36 (KHTML, like Gecko) Chrome/135.0.0.0 Safari/537.36 Edg/135.0.0.0" version="26.2.9">
  <diagram name="第 1 页" id="og8ftpJaaiYts0zKQW_Y">
    <mxGraphModel dx="1130" dy="1039" grid="1" gridSize="10" guides="1" tooltips="1" connect="1" arrows="1" fold="1" page="1" pageScale="1" pageWidth="827" pageHeight="1169" math="0" shadow="0">
      <root>
        <mxCell id="0" />
        <mxCell id="1" parent="0" />
        <mxCell id="A0AeQe68lzj6-sx0fYqF-1" value="" style="rounded=0;whiteSpace=wrap;html=1;" vertex="1" parent="1">
          <mxGeometry x="130" y="160" width="660" height="350" as="geometry" />
        </mxCell>
        <mxCell id="A0AeQe68lzj6-sx0fYqF-2" value="关于" style="rounded=0;whiteSpace=wrap;html=1;labelBackgroundColor=#33FFFF;" vertex="1" parent="1">
          <mxGeometry x="220" y="200" width="120" height="60" as="geometry" />
        </mxCell>
        <mxCell id="A0AeQe68lzj6-sx0fYqF-3" value="网络" style="rounded=0;whiteSpace=wrap;html=1;" vertex="1" parent="1">
          <mxGeometry x="480" y="200" width="120" height="60" as="geometry" />
        </mxCell>
        <mxCell id="A0AeQe68lzj6-sx0fYqF-4" value="升级" style="rounded=0;whiteSpace=wrap;html=1;" vertex="1" parent="1">
          <mxGeometry x="610" y="200" width="120" height="60" as="geometry" />
        </mxCell>
        <mxCell id="A0AeQe68lzj6-sx0fYqF-5" value="音量" style="rounded=0;whiteSpace=wrap;html=1;" vertex="1" parent="1">
          <mxGeometry x="350" y="200" width="120" height="60" as="geometry" />
        </mxCell>
        <mxCell id="A0AeQe68lzj6-sx0fYqF-6" value="内核版本：" style="text;html=1;align=center;verticalAlign=middle;whiteSpace=wrap;rounded=0;" vertex="1" parent="1">
          <mxGeometry x="235" y="300" width="90" height="30" as="geometry" />
        </mxCell>
        <mxCell id="A0AeQe68lzj6-sx0fYqF-7" value="1.0.2" style="text;html=1;align=center;verticalAlign=middle;whiteSpace=wrap;rounded=0;" vertex="1" parent="1">
          <mxGeometry x="300" y="300" width="90" height="30" as="geometry" />
        </mxCell>
        <mxCell id="A0AeQe68lzj6-sx0fYqF-8" value="Launcher版本：" style="text;html=1;align=center;verticalAlign=middle;whiteSpace=wrap;rounded=0;" vertex="1" parent="1">
          <mxGeometry x="220" y="340" width="90" height="30" as="geometry" />
        </mxCell>
        <mxCell id="A0AeQe68lzj6-sx0fYqF-9" value="1.0.0" style="text;html=1;align=center;verticalAlign=middle;whiteSpace=wrap;rounded=0;" vertex="1" parent="1">
          <mxGeometry x="300" y="340" width="90" height="30" as="geometry" />
        </mxCell>
        <mxCell id="A0AeQe68lzj6-sx0fYqF-10" value="sn：" style="text;html=1;align=center;verticalAlign=middle;whiteSpace=wrap;rounded=0;" vertex="1" parent="1">
          <mxGeometry x="250" y="375" width="90" height="30" as="geometry" />
        </mxCell>
        <mxCell id="A0AeQe68lzj6-sx0fYqF-11" value="249uisndfdd34" style="text;html=1;align=center;verticalAlign=middle;whiteSpace=wrap;rounded=0;" vertex="1" parent="1">
          <mxGeometry x="325" y="375" width="90" height="30" as="geometry" />
        </mxCell>
        <mxCell id="A0AeQe68lzj6-sx0fYqF-12" value="型号：" style="text;html=1;align=center;verticalAlign=middle;whiteSpace=wrap;rounded=0;" vertex="1" parent="1">
          <mxGeometry x="245" y="405" width="90" height="30" as="geometry" />
        </mxCell>
        <mxCell id="A0AeQe68lzj6-sx0fYqF-13" value="v23" style="text;html=1;align=center;verticalAlign=middle;whiteSpace=wrap;rounded=0;" vertex="1" parent="1">
          <mxGeometry x="300" y="405" width="90" height="30" as="geometry" />
        </mxCell>
        <mxCell id="A0AeQe68lzj6-sx0fYqF-14" value="Copyright lsdfm&#39;lddf&#39;gkdflgdfg" style="text;html=1;align=center;verticalAlign=middle;whiteSpace=wrap;rounded=0;" vertex="1" parent="1">
          <mxGeometry x="230" y="435" width="380" height="30" as="geometry" />
        </mxCell>
      </root>
    </mxGraphModel>
  </diagram>
</mxfile>
